<svg width="41" height="23" viewBox="0 0 41 23" fill="none" xmlns="http://www.w3.org/2000/svg">
<path d="M6.48535 22H2.98438V4.68555L0.171875 6.10645V2.42969L3.27734 0.701172H6.48535V22ZM17.4277 22.2197C16.1094 22.2197 14.9521 21.9756 13.9561 21.4873C12.96 20.999 12.1885 20.3105 11.6416 19.4219C11.0947 18.5234 10.8213 17.4834 10.8213 16.3018V15.9502C10.8213 14.8857 11.0996 13.8848 11.6562 12.9473C12.2227 12.0098 12.9697 11.3018 13.8975 10.8232C13.1064 10.4131 12.4668 9.82227 11.9785 9.05078C11.5 8.2793 11.2607 7.46387 11.2607 6.60449V6.07715C11.2607 4.96387 11.5146 3.9873 12.0225 3.14746C12.54 2.29785 13.2627 1.64355 14.1904 1.18457C15.1182 0.71582 16.1973 0.481445 17.4277 0.481445C18.6582 0.481445 19.7373 0.71582 20.665 1.18457C21.5928 1.64355 22.3105 2.29785 22.8184 3.14746C23.3359 3.9873 23.5947 4.96387 23.5947 6.07715V6.60449C23.5947 7.4834 23.3457 8.30859 22.8477 9.08008C22.3594 9.8418 21.7148 10.4229 20.9141 10.8232C21.8516 11.3115 22.6035 12.0244 23.1699 12.9619C23.7461 13.8896 24.0342 14.8857 24.0342 15.9502V16.3018C24.0342 17.4834 23.7607 18.5234 23.2139 19.4219C22.667 20.3105 21.8955 20.999 20.8994 21.4873C19.9033 21.9756 18.7461 22.2197 17.4277 22.2197ZM17.4277 18.8506C18.043 18.8506 18.585 18.7285 19.0537 18.4844C19.5322 18.2402 19.8984 17.8936 20.1523 17.4443C20.416 16.9951 20.5479 16.4824 20.5479 15.9062V15.7012C20.5479 15.1348 20.416 14.6367 20.1523 14.207C19.8984 13.7773 19.5371 13.4453 19.0684 13.2109C18.5996 12.9668 18.0527 12.8447 17.4277 12.8447C16.8027 12.8447 16.2559 12.9668 15.7871 13.2109C15.3184 13.4453 14.9521 13.7822 14.6885 14.2217C14.4346 14.6514 14.3076 15.1494 14.3076 15.7158V15.9355C14.3076 16.5117 14.4346 17.0244 14.6885 17.4736C14.9521 17.9131 15.3184 18.2549 15.7871 18.499C16.2656 18.7334 16.8125 18.8506 17.4277 18.8506ZM17.4277 9.47559C17.9551 9.47559 18.4189 9.36328 18.8193 9.13867C19.2295 8.9043 19.542 8.57715 19.7568 8.15723C19.9814 7.72754 20.0938 7.23438 20.0938 6.67773V6.47266C20.0938 5.95508 19.9814 5.49609 19.7568 5.0957C19.542 4.69531 19.2295 4.3877 18.8193 4.17285C18.4189 3.95801 17.9551 3.85059 17.4277 3.85059C16.9004 3.85059 16.4316 3.95801 16.0215 4.17285C15.6211 4.3877 15.3086 4.69531 15.084 5.0957C14.8691 5.49609 14.7617 5.95996 14.7617 6.4873V6.70703C14.7617 7.25391 14.8691 7.7373 15.084 8.15723C15.3086 8.57715 15.6211 8.9043 16.0215 9.13867C16.4316 9.36328 16.9004 9.47559 17.4277 9.47559ZM34.1416 22.2197C32.1104 22.2197 30.5625 21.6875 29.498 20.623C28.4434 19.5586 27.916 18.0742 27.916 16.1699V6.4873C27.916 4.57324 28.4482 3.08887 29.5127 2.03418C30.5771 0.969727 32.1201 0.4375 34.1416 0.4375C36.1729 0.4375 37.7158 0.964844 38.7705 2.01953C39.835 3.07422 40.3672 4.56348 40.3672 6.4873V16.1699C40.3672 18.084 39.835 19.5732 38.7705 20.6377C37.7061 21.6924 36.1631 22.2197 34.1416 22.2197ZM34.1416 18.8652C35.0791 18.8652 35.7676 18.5918 36.207 18.0449C36.6465 17.4883 36.8662 16.6924 36.8662 15.6572V7C36.8662 5.96484 36.6465 5.17383 36.207 4.62695C35.7676 4.07031 35.0791 3.79199 34.1416 3.79199C33.2041 3.79199 32.5156 4.07031 32.0762 4.62695C31.6367 5.17383 31.417 5.96484 31.417 7V15.6572C31.417 16.6924 31.6367 17.4883 32.0762 18.0449C32.5156 18.5918 33.2041 18.8652 34.1416 18.8652Z" fill="#5E6A6D"/>
</svg>
