<svg width="52" height="73" viewBox="0 0 52 73" fill="none" xmlns="http://www.w3.org/2000/svg">
<g clip-path="url(#clip0_20_13)">
<path d="M49.1 38.4C46.1 38 43 38 40 38.7C40 38.5 40 38.3 40 38.2C40.2 36.7 40 35.2 39.7 33.7C39.4 31.9 39.2 30.1 39.1 28.3C39 26.1 38.7 23.9 37.9 21.8C37.4 20.4 37.1 18.9 36.8 17.4C36.5 15.7 36.2 14 35.4 12.3C34.4 10 33.4 7.70002 32.4 5.40002C31.8 3.90002 31 2.60002 29.7 1.60002C27.2 -0.499976 24.1 -0.499976 21.6 1.60002C20.3 2.60002 19.5 4.00002 18.9 5.50002C18 7.60002 17.1 9.80002 16.2 11.9V12C15.9 12.6 15.8 13.2 15.6 13.8C15.4 14.6 15.1 15.4 14.9 16.2C14.8 16.6 14.7 17 14.6 17.4C14.2 18.9 14 20.5 13.5 22C12.7 24.3 12.5 26.5 12.4 28.9C12.3 30.4 12.1 31.9 11.9 33.4C11.7 34.7 11.6 36 11.5 37.4C11.5 37.8 11.5 38.3 11.6 38.7C11.4 38.7 11.2 38.6 11.1 38.6C8.1 38 5.2 38 2.3 38.4C1 38.6 0 39.5 0 40.7C0 41.9 0.9 42.9 2.1 43.1C2.7 43.2 3.2 43.2 3.8 43.2C6.1 43.3 8 44.1 9.1 46.2C9.8 47.5 10.4 48.9 10.7 50.3C11.3 52.4 11.5 54.5 12 56.5C13.1 61 15.6 64.5 20.2 66C21.2 66.3 21.6 66.8 21.6 67.8C21.6 69.7 22.1 71.4 24.2 72.1C25.1 72.1 26.1 72.1 27 72.1C28.7 71.5 29.5 70.2 29.6 68.4C29.6 67.9 29.7 67.4 29.8 66.9C29.8 66.5 30 66.3 30.5 66.2C32.1 65.8 33.6 65 34.9 64C38.4 61.1 39.1 56.6 40.1 52.4C40.4 51.3 40.7 50.3 41 49.2C41.2 48.7 41.4 48.1 41.6 47.6C41.7 47.3 41.8 47.1 41.9 46.8C42 46.6 42.2 46.3 42.2 46C42.8 44.5 44.5 43.5 46.1 43.2C47 43 48 43 48.9 42.9C50.3 42.8 51.3 41.8 51.3 40.5C51.4 39.5 50.5 38.6 49.1 38.4ZM37.8 38.8C37.8 39 37.7 39.3 37.5 39.3C35.5 40 33.6 41 31.8 42.3C31.8 39.7 31.8 37.1 31.8 34.5C33.5 34 35.4 33.4 37.3 32.9C37.9 34.9 38.1 36.8 37.8 38.8ZM35.7 21.5C36.1 23 36.6 24.6 36.8 26.1C37 27.4 37 28.8 37 30.2C37 30.4 36.8 30.7 36.6 30.8C35 31.4 33.4 31.9 31.6 32.5C31.9 29.2 31.9 26.1 31.2 23.1C32.7 22.6 34.1 22 35.7 21.5ZM35 19.4C33.8 19.9 32.5 20.4 31 20.9C31.1 17.7 30.9 14.8 29.8 11.9C30.7 11.6 31.5 11.2 32.3 10.9C34.1 13.5 34.6 16.4 35 19.4ZM22.8 45C22.3 45 22.1 44.7 22 44.3C21.6 41.2 21.3 38.1 21.9 35.1C24.4 35.1 26.9 35.1 29.5 35.1C29.8 37.1 30 39.3 29.7 41.4C29.6 42.4 29.5 43.3 29.4 44.3C29.3 44.8 29.1 45.1 28.6 45.1C26.7 45 24.7 45 22.8 45ZM27.2 47.3C26.7 48.1 26.2 49 25.7 49.9C25.2 49 24.7 48.2 24.2 47.3C25.2 47.3 26.2 47.3 27.2 47.3ZM22.4 23.6C24.6 23.6 26.8 23.6 29.1 23.6C29.8 26.5 29.7 29.6 29.5 32.7C27 33.2 24.1 33.1 22 32.7C21.6 30.2 21.8 25.2 22.4 23.6ZM31.6 9.00002C30.9 9.30002 30.3 9.50002 29.5 9.80002C29.4 7.40002 29.2 5.20002 28.2 3.10002C30.3 4.50002 30.7 6.80002 31.6 9.00002ZM25.7 3.30002C27.3 5.40002 27.2 7.80002 27.4 10.3C26.2 10.3 25.2 10.3 24 10.3C24.2 7.80002 24.2 5.40002 25.7 3.30002ZM27.7 12.4C28.8 15.2 29 18.2 28.8 21.3C26.7 21.8 24.6 21.7 22.5 21.3C22.3 18.3 22.5 15.3 23.6 12.4C25 12.4 26.4 12.4 27.7 12.4ZM23.2 3.10002C22.9 4.20002 22.5 5.30002 22.3 6.40002C22 7.50002 22 8.60002 21.9 9.80002C21.2 9.50002 20.6 9.30002 19.9 9.00002C20.7 6.90002 21.1 4.50002 23.2 3.10002ZM16.8 17.2C17 16.4 17.2 15.7 17.5 14.9C17.7 14.3 18 13.7 18.2 13.1C18.3 12.8 18.8 11.3 19 10.9C19.9 11.2 20.7 11.5 21.6 11.9C20.5 14.8 20.3 17.7 20.4 20.9C18.9 20.3 17.7 19.8 16.4 19.4C16.6 18.7 16.6 17.9 16.8 17.2ZM15.8 21.7C15.8 21.6 15.9 21.5 15.9 21.5C17.3 22 18.7 22.5 20.2 23.1C19.5 26.1 19.5 29.2 19.8 32.5C18 31.9 16.3 31.3 14.7 30.7C14.6 30.7 14.4 30.4 14.4 30.2C14.5 27.4 14.6 24.5 15.8 21.7ZM14.1 32.9C16 33.5 17.8 34 19.6 34.6C19.6 37.1 19.6 39.7 19.6 42.3C19.1 41.9 18.6 41.6 18.1 41.3C16.8 40.6 15.5 40 14.2 39.4C14 39.3 13.7 39.1 13.7 38.9C13.4 36.8 13.5 34.9 14.1 32.9ZM22.1 64.1C22.1 64.2 22.1 64.2 22 64.3C18.7 63.5 16.4 61.6 15 58.5C14.1 56.6 13.9 54.5 13.5 52.5C13.1 50.6 12.6 48.6 11.9 46.8C10.4 42.9 7.5 41 3.4 41C3 41 2.6 40.9 2.2 40.9C2.2 40.8 2.2 40.7 2.2 40.7C2.3 40.6 2.4 40.5 2.6 40.5C8 39.8 13.2 40.4 17.8 43.5C20.9 45.7 23 48.6 24.5 52.1C24.6 52.3 24.6 52.6 24.5 52.8C23.1 56.4 22.3 60.2 22.1 64.1ZM27.5 69.2V69.3C27 70.4 26 70 25.2 70.1C24.6 70.2 24.1 69.9 24 69.3C23.8 68.5 23.8 67.7 23.7 66.9C25.1 66.9 26.4 66.9 27.8 66.9C27.7 67.7 27.6 68.4 27.5 69.2ZM49.3 41C48.8 41 48.4 41.1 47.9 41.1C46.3 41.2 44.6 41.5 43.2 42.3C41.8 43.1 40.8 44.3 40.1 45.7C39.3 47.2 38.7 48.8 38.3 50.5C37.9 52.2 37.8 53.9 37.4 55.6C37.1 57 36.6 58.4 35.9 59.6C33.3 64.1 28.2 65.2 24.2 64.5C24.2 64.4 24.2 64.3 24.2 64.2C24.5 60.3 25.2 56.5 26.7 52.9C28.1 49.3 30.2 46.2 33.3 43.9C38 40.4 43.3 39.8 49 40.5C49.1 40.5 49.2 40.6 49.4 40.7C49.3 40.8 49.3 40.9 49.3 41Z" fill="#5E6A6D"/>
</g>
<defs>
<clipPath id="clip0_20_13">
<rect width="51.4" height="72.2" fill="white"/>
</clipPath>
</defs>
</svg>
