<svg width="57" height="55" viewBox="0 0 57 55" fill="none" xmlns="http://www.w3.org/2000/svg">
<g clip-path="url(#clip0_20_15)">
<path d="M56.8999 24.7C56.6999 25.2 56.2999 25.4 55.7999 25.6C53.0999 26.3 50.3999 26.5 47.6999 26C47.4999 26 47.1999 25.9 46.8999 25.9C46.8999 26.1 46.8999 26.3 46.8999 26.5C46.9999 29.9 46.5999 33.2 45.6999 36.4C45.5999 36.6 45.6999 36.9 45.7999 37C49.9999 42.1 48.4999 49.2 42.5999 52.3C40.2999 53.5 37.8999 54.1 35.2999 54.4C30.4999 55 25.5999 55 20.7999 54.3C17.9999 53.9 15.2999 53.1 12.8999 51.5C7.59993 47.9 7.79993 40.5 10.9999 37C11.0999 36.9 11.1999 36.6 11.1999 36.4C10.2999 33.1 9.89993 29.6 9.99993 26.2C9.99993 26.1 9.99993 26 9.99993 25.9C9.19993 26 8.29993 26.1 7.49993 26.2C5.39993 26.4 3.29993 26.2 1.19993 25.6C0.0999266 25.3 -0.200073 24.8 0.199927 23.7C1.29993 20.5 3.09993 17.7 5.99993 15.9C7.09993 15.2 8.29993 14.6 9.49993 14C9.19993 13 8.79993 12.1 8.49993 11C7.79993 8.00002 7.89993 5.10002 9.19993 2.40002C9.59993 1.60002 9.99993 0.900016 10.7999 0.400016C12.3999 -0.599984 14.3999 0.200016 14.7999 2.10002C15.0999 3.80002 15.9999 5.20002 17.1999 6.40002C18.3999 7.60002 19.6999 8.70002 20.9999 9.80002C21.0999 9.90002 21.4999 10 21.6999 9.90002C22.1999 9.80002 22.6999 9.60002 23.1999 9.50002C23.8999 9.30002 24.4999 9.60002 24.6999 10.2C24.8999 10.9 24.5999 11.4 23.7999 11.6C23.4999 11.7 23.1999 11.8 22.9999 11.9C22.0999 12.2 22.0999 12.2 22.0999 13.1C21.9999 16.1 23.7999 18.2 26.8999 18.3C27.6999 18.3 28.5999 18.2 29.3999 18C32.6999 17.1 35.7999 18.6 36.9999 21.9C37.7999 24.2 39.7999 25.3 42.3999 24.7C42.9999 24.6 43.6999 24.3 44.2999 24.1C44.6999 24 44.6999 23.7 44.6999 23.4C43.4999 17.7 40.1999 13.9 34.6999 12C34.2999 11.9 33.8999 11.8 33.4999 11.6C32.8999 11.4 32.5999 10.9 32.6999 10.3C32.7999 9.70002 33.3999 9.40002 33.9999 9.50002C34.5999 9.60002 35.0999 9.80002 35.6999 10C35.8999 10 36.1999 10 36.2999 9.90002C37.7999 8.60002 39.2999 7.20002 40.6999 5.80002C41.6999 4.80002 42.1999 3.60002 42.4999 2.20002C42.4999 1.62125e-05 44.9999 -0.699984 46.5999 0.800016C47.6999 1.80002 48.0999 3.10002 48.3999 4.50002C49.0999 7.60002 48.7999 10.6 47.4999 13.5C47.3999 13.6 47.3999 13.8 47.2999 13.9C47.4999 14 47.6999 14.1 47.8999 14.2C51.3999 15.6 54.0999 17.9 55.6999 21.3C56.0999 22.2 56.4999 23.1 56.8999 24C56.8999 24.2 56.8999 24.5 56.8999 24.7ZM28.3999 52.7C30.6999 52.5 32.9999 52.4 35.2999 52.1C37.6999 51.8 39.9999 51.1 42.0999 50C47.1999 47.2 47.0999 39.7 42.0999 36.9C40.4999 36 38.7999 35.4 36.9999 35C31.5999 34 26.1999 34 20.7999 34.8C18.4999 35.2 16.1999 35.8 14.1999 37.1C9.89993 39.9 10.1999 45.8 12.6999 48.4C14.0999 49.8 15.7999 50.7 17.5999 51.2C21.1999 52.3 24.7999 52.6 28.3999 52.7ZM44.5999 26.3C43.9999 26.5 43.4999 26.7 42.8999 26.8C42.3999 26.9 41.7999 27 41.2999 27C38.8999 27.1 35.7999 26.2 34.5999 22.8C34.3999 22.2 34.0999 21.7 33.7999 21.2C32.7999 19.9 31.3999 19.6 29.5999 20.1C28.2999 20.5 26.8999 20.6 25.5999 20.3C22.7999 19.7 20.6999 18.3 19.7999 15.4C19.5999 14.7 19.5999 14 19.4999 13.2H19.3999C16.1999 15.1 14.0999 17.9 12.9999 21.5C12.0999 24.6 11.9999 27.8 12.3999 31.1C12.5999 32.4 12.8999 33.7 13.0999 34.9C14.2999 34.4 15.2999 33.9 16.3999 33.5C19.9999 32.5 23.6999 32 27.4999 32C33.0999 32 38.5999 32.4 43.6999 35.1C44.3999 32.3 44.6999 29.3 44.5999 26.3ZM43.2999 15.7C43.3999 15.6 43.3999 15.6 43.4999 15.5C45.9999 12.7 46.9999 9.40002 46.3999 5.70002C46.1999 4.60002 45.6999 3.60002 45.2999 2.60002C45.1999 2.40002 44.7999 2.30002 44.5999 2.20002C44.4999 2.20002 44.2999 2.60002 44.1999 2.80002C43.8999 3.60002 43.6999 4.40002 43.2999 5.20002C42.3999 6.90002 41.0999 8.20002 39.6999 9.50002C39.0999 10 38.5999 10.5 37.8999 11.1C40.0999 12.3 41.7999 13.8 43.2999 15.7ZM18.7999 11.1C18.7999 11 18.7999 11 18.7999 11C18.6999 10.9 18.5999 10.8 18.4999 10.7C15.8999 8.40002 13.2999 6.10002 12.5999 2.50002C12.4999 2.10002 12.1999 2.00002 11.8999 2.30002C11.6999 2.50002 11.4999 2.80002 11.2999 3.00002C9.99993 5.90002 9.99993 8.80002 10.9999 11.8C11.4999 13.3 12.3999 14.6 13.4999 15.7C14.9999 13.8 16.6999 12.3 18.7999 11.1ZM2.59993 23.6C4.99993 24.1 7.29993 24.1 9.59993 23.6C10.0999 23.5 10.2999 23.3 10.3999 22.8C10.7999 21.4 11.1999 20 11.6999 18.7C12.0999 17.9 12.0999 17.3 11.3999 16.7C11.1999 16.5 11.0999 16.3 10.8999 16.1C10.7999 16 10.4999 15.9 10.3999 15.9C8.49993 16.6 6.79993 17.6 5.39993 19C4.09993 20.3 3.29993 21.9 2.59993 23.6ZM54.3999 23.7C53.8999 22.8 53.5999 22 53.1999 21.2C51.5999 18.6 49.1999 16.9 46.3999 15.9C46.2999 15.9 45.9999 15.9 45.8999 16.1C45.4999 16.5 45.1999 16.9 44.7999 17.3C44.6999 17.4 44.5999 17.7 44.6999 17.9C45.4999 19.5 46.0999 21.2 46.3999 23C46.4999 23.3 46.5999 23.5 46.8999 23.5C47.8999 23.6 48.8999 23.9 49.8999 23.9C51.3999 24 52.7999 23.8 54.3999 23.7Z" fill="#5E6A6D"/>
<path d="M28.3998 11C27.7998 11 27.2998 10.5 27.2998 9.89999C27.2998 9.29999 27.7998 8.79999 28.3998 8.79999C28.9998 8.79999 29.4998 9.29999 29.4998 9.89999C29.4998 10.5 28.9998 11 28.3998 11Z" fill="#5E6A6D"/>
<path d="M25.1 40.9C24.5 40.9 24 40.4 24 39.8C24 39.2 24.5 38.7 25.1 38.7C25.7 38.7 26.2 39.2 26.2 39.8C26.2 40.5 25.7 40.9 25.1 40.9Z" fill="#5E6A6D"/>
<path d="M31.7997 40.9C31.1997 40.9 30.6997 40.4 30.6997 39.8C30.6997 39.2 31.1997 38.7 31.7997 38.7C32.3997 38.7 32.8997 39.2 32.8997 39.8C32.8997 40.5 32.3997 40.9 31.7997 40.9Z" fill="#5E6A6D"/>
<path d="M23.4001 29.8C23.4001 30.7 22.7001 31.5 21.8001 31.5C20.9001 31.5 20.1001 30.8 20.1001 29.8C20.1001 28.9 20.8001 28.1 21.7001 28.1C22.7001 28.1 23.4001 28.9 23.4001 29.8Z" fill="#5E6A6D"/>
<path d="M35.0999 31.5C34.1999 31.5 33.3999 30.8 33.3999 29.9C33.3999 29 34.0999 28.2 35.0999 28.2C35.9999 28.2 36.6999 29 36.6999 29.9C36.6999 30.7 35.9999 31.5 35.0999 31.5Z" fill="#5E6A6D"/>
</g>
<defs>
<clipPath id="clip0_20_15">
<rect width="56.9" height="54.8" fill="white"/>
</clipPath>
</defs>
</svg>
