<svg width="422" height="886" viewBox="0 0 422 886" fill="none" xmlns="http://www.w3.org/2000/svg">
<mask id="mask0_1_11" style="mask-type:luminance" maskUnits="userSpaceOnUse" x="-6" y="0" width="428" height="886">
<path d="M422 0H-5.5V885.2H422V0Z" fill="white"/>
</mask>
<g mask="url(#mask0_1_11)">
<g opacity="0.05">
<path d="M138.8 474.5C109.2 406.1 80.2998 339.1 49.9998 269C21.1998 335.6 -6.2002 398.8 -33.9002 462.6C-77.7002 441.2 -121.8 426.2 -170.7 420.3C-120.7 309 -71.3002 198.8 -21.5002 87.9C26.7998 87.9 75.1998 87.9 125.5 87.9C175.1 198.4 225 309.6 275.8 422.6C227.4 435.3 182.8 453.1 138.8 474.5Z" fill="#434B4F"/>
<path d="M-58.2002 768.9C-79.7002 768.9 -101.4 768.9 -125.2 768.9C-91.0002 702.4 -49.0002 643.4 3.69981 592.3C79.3998 518.9 168.8 470.2 272.4 444.1C278.8 458.2 285 472 291.3 486.1C138.9 536.4 18.7998 624.9 -58.2002 768.9Z" fill="#434B4F"/>
<path d="M418.2 768.9C361.8 768.9 307.4 768.9 252.1 768.9C235.5 730.3 218.9 691.8 201.8 652C244.1 623.2 290.1 605.5 339.9 594.6C366.1 652.7 391.7 709.9 418.2 768.9Z" fill="#434B4F"/>
<path d="M327.2 566.3C205.2 594.7 114.7 662.9 52.4 769.4C46.4 769.4 40.8 769.4 35.2 769.4C20.2 769.4 5.1 769.4 -10 769.4C3.4 692.4 205.5 536.2 308.1 523.7C314.2 537.2 320.4 551.1 327.2 566.3Z" fill="#434B4F"/>
<path d="M-216.8 481.1C-210.9 467.9 -205.5 455.7 -199.8 442.9C-116.2 449.7 -46.4998 488 21.8002 534.1C8.90019 545.7 -2.69981 556.1 -15.1998 567.3C-73.3998 518.8 -139.9 489.3 -216.8 481.1Z" fill="#434B4F"/>
</g>
</g>
</svg>
