<svg width="61" height="61" viewBox="0 0 61 61" fill="none" xmlns="http://www.w3.org/2000/svg">
<g clip-path="url(#clip0_8_59)">
<path d="M1.49999 39.6C-3.70001 23.7 5.09999 6.30001 21.4 1.30001C37.1 -3.49999 54.1 5.20001 59.1 21.4C63.9 37.1 55.2 54.2 39 59.1C23.3 63.9 6.59999 55.2 1.49999 39.6ZM22.3 4.80001C8.29999 9.10002 0.499992 24 4.69999 37.9C8.99999 52.3 24.1 59.9 37.9 55.7C52.2 51.4 59.9 36.4 55.7 22.5C51.3 8.10002 36.1 0.400015 22.3 4.80001Z" fill="#434B4F"/>
<path d="M39.4999 21.2001C38.7999 21.4001 38.0999 21.7001 37.2999 21.9001C35.8999 22.2001 34.5999 21.9001 33.3999 21.0001C32.3999 20.2001 31.3999 19.4001 30.4999 18.6001C30.2999 18.4001 30.0999 18.4001 29.8999 18.5001C26.8999 20.0001 24.3999 22.1001 22.3999 24.8001C20.8999 26.9001 19.8999 29.2001 19.1999 31.7001C19.0999 31.9001 19.1999 32.0001 19.3999 32.1001C20.3999 32.9001 21.3999 33.7001 22.3999 34.5001C23.6999 35.6001 24.2999 37.0001 24.0999 38.7001C23.8999 40.4001 23.7999 42.2001 23.2999 43.9001C22.9999 44.9001 22.3999 45.6001 21.2999 45.9001C20.9999 46.0001 20.6999 46.0001 20.2999 46.0001C18.9999 46.0001 17.7999 45.9001 16.5999 45.6001C14.9999 45.2001 13.8999 44.2001 13.0999 42.8001C12.2999 41.3001 11.9999 39.6001 11.8999 37.9001C11.5999 32.2001 12.8999 26.9001 15.9999 22.1001C18.6999 17.9001 22.1999 14.6001 26.6999 12.4001C29.7999 10.9001 32.9999 9.90012 36.4999 9.70012C37.3999 9.60012 38.3999 9.70012 39.2999 9.90012C41.2999 10.4001 42.7999 11.4001 43.4999 13.4001C43.7999 14.4001 44.1999 15.4001 44.3999 16.5001C44.6999 18.0001 44.1999 19.1001 42.7999 19.8001C41.5999 20.4001 40.5999 20.8001 39.4999 21.2001Z" fill="#434B4F"/>
<path d="M36.3002 46.8C36.0002 46.9 35.7002 47 35.4002 47C34.5002 47.1 33.7002 46.5 33.5002 45.7C33.3002 44.8 33.7002 43.9 34.5002 43.6C35.9002 43.1 37.2002 42.5 38.4002 41.6C41.7002 39 43.5002 35.6 43.7002 31.3C43.8002 30.1 44.9002 29.2 46.0002 29.6C46.8002 29.8 47.3002 30.6 47.3002 31.4C47.2002 33.6 46.8002 35.8 45.8002 37.8C44.1002 41.5 41.5002 44.2 38.0002 46C37.5002 46.3 36.9002 46.5 36.3002 46.8Z" fill="#434B4F"/>
<path d="M33.4 39.0999C32.7 39.2999 32 39.2999 31.5 38.7999C31 38.2999 30.8 37.7999 31 37.0999C31.1 36.4999 31.5 35.9999 32.1 35.7999C34.3 34.9999 35.4 33.3999 35.6 31.0999C35.7 30.0999 36.5 29.3999 37.4 29.3999C38.4 29.3999 39.2 30.1999 39.1 31.1999C38.9 34.4999 37.4 36.9999 34.5 38.5999C34.1 38.6999 33.7 38.8999 33.4 39.0999Z" fill="#434B4F"/>
</g>
<defs>
<clipPath id="clip0_8_59">
<rect width="60.4" height="60.4" fill="white"/>
</clipPath>
</defs>
</svg>
